<svg xmlns="http://www.w3.org/2000/svg" width="158.997" height="158.997" viewBox="0 0 158.997 158.997"><g transform="translate(-170.502 -170.502)"><g transform="translate(170.502 170.502)"><path d="M79.5,0A88,88,0,0,0,20.491,23.406L8.48,11.395A4.966,4.966,0,0,0,0,14.906V48.03A4.97,4.97,0,0,0,4.969,53H38.093a4.966,4.966,0,0,0,3.511-8.48L29.871,32.786C43.207,20.716,61.5,13.25,79.5,13.25a66.249,66.249,0,0,1,0,132.5,65.556,65.556,0,0,1-46.8-19.424,6.624,6.624,0,1,0-9.394,9.341A78.708,78.708,0,0,0,79.5,159a79.5,79.5,0,0,0,0-159Z" transform="translate(0)" fill="#2a3243"/><path d="M15.594,40.437H6.676A53.181,53.181,0,1,0,25.551,14.408l.583.583a14.9,14.9,0,0,1-10.54,25.446Z" transform="translate(22.499 22.499)" fill="#2a3243"/></g><g transform="translate(201.728 205.932)"><path d="M70.324,33.833q-1.07-.367-2.157-.68.18-.732.333-1.471c1.632-7.924.565-14.308-3.08-16.41-3.495-2.016-9.21.086-14.983,5.109q-.853.744-1.668,1.531-.545-.523-1.11-1.025c-6.05-5.372-12.114-7.635-15.755-5.527-3.491,2.021-4.526,8.023-3.056,15.533q.219,1.116.5,2.219c-.858.244-1.687.5-2.479.78C19.773,36.365,15.243,40.24,15.243,44.26c0,4.152,4.862,8.316,12.25,10.841q.9.306,1.812.566-.3,1.188-.526,2.392c-1.4,7.38-.307,13.239,3.175,15.248,3.6,2.074,9.633-.058,15.511-5.2q.7-.609,1.4-1.289.882.851,1.811,1.652c5.694,4.9,11.317,6.878,14.8,4.864,3.593-2.08,4.761-8.375,3.245-16.033q-.173-.877-.4-1.791.636-.188,1.246-.389c7.68-2.544,12.677-6.658,12.677-10.866,0-4.034-4.676-7.936-11.911-10.427Z" transform="translate(0 0)" fill="#2a3243" stroke="#fff" stroke-width="1"/><path d="M75.449,59.184c-.366.121-.742.238-1.125.352a67.169,67.169,0,0,0-3.392-8.487,67.142,67.142,0,0,0,3.26-8.363c.685.2,1.35.408,1.991.629,6.2,2.134,9.981,5.289,9.981,7.72,0,2.59-4.084,5.952-10.715,8.149ZM72.7,64.636a24.234,24.234,0,0,1,.322,8.842c-.4,2.151-1.2,3.585-2.193,4.159-2.111,1.222-6.626-.366-11.5-4.556q-.837-.72-1.685-1.536a67.252,67.252,0,0,0,5.615-7.13,66.808,66.808,0,0,0,9.073-1.4q.2.827.363,1.621ZM44.872,77.426c-2.063.728-3.705.749-4.7.177-2.113-1.219-2.992-5.924-1.793-12.234q.214-1.119.489-2.224A67.3,67.3,0,0,0,47.9,64.451a69.639,69.639,0,0,0,5.751,7.1q-.624.6-1.276,1.175a24.239,24.239,0,0,1-7.5,4.695ZM35.209,59.168A24.244,24.244,0,0,1,27.4,55.017c-1.662-1.423-2.5-2.836-2.5-3.982,0-2.439,3.637-5.551,9.7-7.666q1.142-.4,2.306-.726A68.636,68.636,0,0,0,40.169,51.1a69.682,69.682,0,0,0-3.306,8.581Q36.03,59.447,35.209,59.168Zm3.239-22.05c-1.259-6.435-.423-11.288,1.681-12.506,2.241-1.3,7.2.553,12.421,5.191.334.3.669.607,1.005.928a68.581,68.581,0,0,0-5.707,7.062,69.928,69.928,0,0,0-8.94,1.389q-.256-1.026-.46-2.064Zm28.9,7.135q-.982-1.7-2.037-3.35c2.138.27,4.185.629,6.108,1.068a61.049,61.049,0,0,1-2.144,5.769q-.929-1.762-1.927-3.486ZM55.562,32.776A61.2,61.2,0,0,1,59.5,37.535q-3.957-.187-7.918,0C52.888,35.817,54.221,34.223,55.562,32.776ZM43.7,44.274q-.986,1.71-1.891,3.464c-.833-1.977-1.546-3.92-2.129-5.8,1.911-.428,3.95-.777,6.073-1.043Q44.689,42.562,43.7,44.274Zm2.115,17.1a60.936,60.936,0,0,1-6.174-.993c.591-1.91,1.32-3.9,2.171-5.914q.909,1.755,1.9,3.467,1.01,1.745,2.1,3.44Zm9.824,8.12c-1.356-1.464-2.709-3.083-4.031-4.824q1.924.076,3.92.076,2.048,0,4.044-.09A60.857,60.857,0,0,1,55.641,69.5ZM69.3,54.366a60.776,60.776,0,0,1,2.25,5.893A60.739,60.739,0,0,1,65.3,61.325q1.062-1.684,2.057-3.409,1.011-1.753,1.943-3.55Zm-4.422,2.12q-1.522,2.644-3.214,5.186c-1.988.142-4.042.215-6.135.215s-4.113-.065-6.065-.192Q47.729,59.161,46.19,56.5q-1.531-2.644-2.858-5.4,1.323-2.753,2.85-5.4h0q1.525-2.646,3.248-5.171c1.992-.151,4.035-.229,6.1-.229s4.12.079,6.111.231q1.7,2.519,3.228,5.154t2.888,5.375q-1.342,2.762-2.879,5.423Zm5.9-31.959c2.243,1.294,3.116,6.511,1.706,13.353q-.139.669-.3,1.332A68.561,68.561,0,0,0,63.23,37.8a67.231,67.231,0,0,0-5.663-7.068q.753-.726,1.541-1.413c4.946-4.3,9.568-6,11.675-4.789Z" transform="translate(-6.79 -6.775)" fill="#fff"/><path d="M114.026,94.665a5.982,5.982,0,1,1-5.982,5.982,5.982,5.982,0,0,1,5.982-5.982" transform="translate(-65.287 -56.387)" fill="#2a3243"/></g></g></svg>